<svg id="svg" version="1.1" width="400" height="420.8092485549133" viewBox="0 0 400 420.8092485549133" xmlns="http://www.w3.org/2000/svg" xmlns:xlink="http://www.w3.org/1999/xlink" ><g id="svgg"><path id="path0" d="M206.519 88.041 C 206.265 88.295,204.621 88.478,202.636 88.473 C 200.186 88.467,199.029 88.628,198.625 89.032 C 198.313 89.344,197.774 89.600,197.429 89.600 C 197.083 89.600,196.800 89.858,196.800 90.173 C 196.800 90.488,196.395 90.873,195.900 91.028 C 195.405 91.183,194.571 91.645,194.046 92.055 C 193.521 92.465,192.692 92.800,192.202 92.800 C 191.713 92.800,190.507 93.509,189.522 94.377 C 183.635 99.558,170.762 105.200,164.825 105.200 C 163.663 105.200,162.766 105.596,161.050 106.867 L 158.800 108.534 158.797 110.967 C 158.789 117.209,155.206 125.731,150.846 129.879 C 148.978 131.656,142.794 135.600,141.877 135.600 C 140.793 135.600,139.600 136.856,139.600 137.998 C 139.600 150.188,125.354 172.901,114.509 178.000 C 113.320 178.559,112.572 179.279,111.988 180.424 C 111.531 181.320,110.558 182.406,109.826 182.838 C 108.941 183.360,108.414 184.030,108.252 184.838 C 108.118 185.512,107.829 185.942,107.605 185.803 C 107.354 185.648,107.200 186.248,107.200 187.376 C 107.200 188.731,107.046 189.200,106.600 189.200 C 106.200 189.200,106.000 189.600,106.000 190.400 C 106.000 191.200,105.800 191.600,105.400 191.600 C 104.956 191.600,104.800 192.067,104.800 193.400 C 104.800 194.627,104.641 195.168,104.300 195.100 C 103.960 195.032,103.760 195.703,103.676 197.198 C 103.597 198.588,103.340 199.514,102.976 199.718 C 102.626 199.913,102.400 200.661,102.400 201.620 C 102.400 202.647,102.219 203.200,101.882 203.200 C 101.568 203.200,101.324 203.788,101.263 204.689 C 101.208 205.508,100.933 206.453,100.651 206.789 C 100.369 207.125,100.096 208.210,100.043 209.200 C 99.991 210.190,99.725 211.180,99.452 211.400 C 99.179 211.620,98.914 212.558,98.863 213.484 C 98.811 214.410,98.507 215.670,98.187 216.284 C 97.867 216.898,97.604 218.334,97.602 219.476 C 97.601 220.618,97.420 221.664,97.200 221.800 C 96.980 221.936,96.800 223.309,96.800 224.852 C 96.800 226.812,96.619 227.838,96.200 228.257 C 95.296 229.161,95.296 261.109,96.200 261.455 C 96.646 261.626,96.800 262.336,96.800 264.214 C 96.800 265.689,97.008 266.963,97.300 267.271 C 97.575 267.562,97.848 268.700,97.906 269.800 C 97.965 270.900,98.190 271.860,98.406 271.933 C 98.623 272.007,98.800 272.579,98.800 273.205 C 98.800 273.831,99.055 274.598,99.366 274.909 C 99.678 275.220,100.026 276.067,100.140 276.791 C 100.254 277.515,100.539 278.299,100.774 278.534 C 101.008 278.768,101.200 279.535,101.200 280.237 C 101.200 281.004,101.440 281.607,101.800 281.745 C 102.130 281.871,102.400 282.245,102.400 282.575 C 102.400 283.414,104.019 286.435,104.357 286.227 C 104.509 286.132,104.677 286.624,104.730 287.319 C 104.783 288.014,105.091 288.731,105.413 288.911 C 105.736 289.092,106.000 289.578,106.000 289.991 C 106.000 290.405,106.231 290.981,106.513 291.271 C 108.220 293.030,108.883 294.400,108.027 294.400 C 107.559 294.400,107.200 294.660,107.200 295.000 C 107.200 295.400,106.800 295.600,106.000 295.600 C 105.340 295.600,104.800 295.762,104.800 295.961 C 104.800 296.159,104.305 296.497,103.700 296.712 C 103.095 296.926,101.957 297.732,101.171 298.502 C 100.385 299.271,99.350 300.026,98.871 300.178 C 98.392 300.330,98.000 300.622,98.000 300.827 C 98.000 301.032,97.730 301.200,97.400 301.200 C 97.070 301.200,96.800 301.470,96.800 301.800 C 96.800 302.130,96.530 302.400,96.200 302.400 C 95.870 302.400,95.600 302.670,95.600 303.000 C 95.600 303.330,95.330 303.600,95.000 303.600 C 94.670 303.600,94.400 303.870,94.400 304.200 C 94.400 304.530,94.130 304.800,93.800 304.800 C 93.470 304.800,93.200 305.070,93.200 305.400 C 93.200 305.730,92.930 306.000,92.600 306.000 C 92.270 306.000,92.000 306.270,92.000 306.600 C 92.000 306.930,91.813 307.200,91.585 307.200 C 90.999 307.200,87.600 310.767,87.600 311.383 C 87.600 311.663,87.063 312.501,86.406 313.246 C 85.750 313.991,85.210 315.005,85.206 315.500 C 85.203 316.030,84.954 316.400,84.600 316.400 C 84.200 316.400,84.000 316.800,84.000 317.600 C 84.000 318.400,83.800 318.800,83.400 318.800 C 83.025 318.800,82.800 319.179,82.800 319.813 C 82.800 320.369,82.530 320.929,82.200 321.055 C 81.748 321.229,81.600 321.956,81.600 324.000 C 81.600 325.953,81.444 326.774,81.042 326.929 C 80.173 327.262,80.117 337.517,80.982 337.849 C 81.389 338.005,81.600 338.604,81.600 339.600 C 81.600 340.577,81.813 341.196,82.200 341.345 C 82.530 341.471,82.800 341.946,82.800 342.400 C 82.800 342.854,83.070 343.329,83.400 343.455 C 83.730 343.582,84.000 343.870,84.000 344.096 C 84.000 344.602,86.713 347.200,87.241 347.200 C 87.452 347.200,87.729 347.470,87.855 347.800 C 87.982 348.130,88.325 348.400,88.618 348.400 C 88.911 348.400,89.742 348.940,90.464 349.600 C 91.446 350.496,92.166 350.800,93.313 350.800 C 94.234 350.800,94.748 350.960,94.600 351.200 C 94.464 351.420,94.588 351.615,94.876 351.633 C 96.463 351.733,97.819 352.108,98.072 352.517 C 98.236 352.782,99.702 353.049,101.480 353.138 C 103.204 353.223,104.727 353.496,104.885 353.746 C 105.374 354.525,121.813 354.614,122.987 353.845 C 123.590 353.450,125.013 353.207,126.988 353.161 C 128.958 353.115,130.248 352.895,130.598 352.545 C 130.898 352.245,131.593 352.000,132.143 352.000 C 132.693 352.000,133.413 351.730,133.743 351.400 C 134.094 351.049,135.071 350.800,136.095 350.800 C 137.059 350.800,138.196 350.536,138.624 350.213 C 139.672 349.420,148.324 349.336,148.623 350.116 C 148.732 350.399,149.393 350.675,150.093 350.728 C 150.793 350.782,151.657 351.090,152.014 351.413 C 152.371 351.736,152.780 352.000,152.922 352.000 C 153.375 352.000,161.600 360.307,161.600 360.763 C 161.600 361.004,161.780 361.200,162.000 361.200 C 162.220 361.200,162.400 361.392,162.400 361.627 C 162.400 361.861,162.849 362.642,163.398 363.362 C 163.947 364.082,164.281 364.785,164.141 364.926 C 164.000 365.066,164.181 365.295,164.543 365.433 C 164.904 365.572,165.200 365.936,165.200 366.243 C 165.200 366.549,165.380 366.800,165.600 366.800 C 165.820 366.800,166.000 367.042,166.000 367.339 C 166.000 367.635,166.360 368.293,166.800 368.800 C 167.240 369.307,167.600 369.885,167.600 370.085 C 167.600 370.284,167.780 370.336,168.000 370.200 C 168.220 370.064,168.400 370.329,168.400 370.789 C 168.400 371.249,168.670 371.729,169.000 371.855 C 169.330 371.982,169.600 372.407,169.600 372.800 C 169.600 373.193,169.870 373.618,170.200 373.745 C 170.530 373.871,170.800 374.251,170.800 374.587 C 170.800 374.924,170.977 375.200,171.192 375.200 C 171.408 375.200,171.698 375.650,171.836 376.200 C 171.974 376.750,172.235 377.200,172.416 377.200 C 172.598 377.200,172.850 377.515,172.977 377.900 C 173.104 378.285,174.005 379.487,174.980 380.571 C 175.955 381.655,176.718 382.735,176.676 382.971 C 176.634 383.207,176.825 383.355,177.100 383.300 C 177.375 383.245,177.600 383.520,177.600 383.911 C 177.600 384.639,179.160 386.260,179.700 386.093 C 179.865 386.042,180.000 386.180,180.000 386.400 C 180.000 386.620,180.270 386.800,180.600 386.800 C 180.930 386.800,181.200 386.980,181.200 387.200 C 181.200 387.420,181.416 387.600,181.679 387.600 C 181.943 387.600,183.372 388.848,184.856 390.373 C 187.328 392.915,188.901 394.149,189.715 394.186 C 189.888 394.194,190.200 394.470,190.408 394.800 C 190.617 395.130,190.791 395.239,190.794 395.042 C 190.797 394.844,191.251 395.170,191.802 395.764 C 192.353 396.359,192.984 396.733,193.205 396.597 C 193.425 396.461,193.710 396.622,193.839 396.956 C 194.137 397.734,196.337 399.035,197.954 399.390 C 198.749 399.565,199.109 399.836,198.939 400.133 C 198.792 400.390,198.809 400.477,198.976 400.327 C 199.143 400.176,200.256 400.581,201.449 401.227 C 202.642 401.872,203.934 402.400,204.320 402.400 C 204.706 402.400,205.425 402.683,205.918 403.028 C 207.306 404.000,208.690 404.117,209.178 403.304 C 209.580 402.634,209.620 402.634,210.020 403.300 C 210.407 403.946,211.552 404.000,224.841 404.000 L 239.242 404.000 239.660 402.800 C 239.976 401.895,240.339 401.589,241.139 401.556 C 242.996 401.478,244.192 401.670,244.452 402.086 C 244.605 402.333,244.788 402.278,244.920 401.945 C 245.039 401.645,245.151 401.604,245.168 401.853 C 245.205 402.384,247.722 401.638,248.493 400.867 C 248.750 400.610,249.284 400.400,249.680 400.400 C 250.076 400.400,250.400 400.223,250.400 400.008 C 250.400 399.792,250.895 399.493,251.500 399.344 C 252.560 399.083,254.386 398.095,254.800 397.559 C 254.910 397.417,255.674 396.941,256.498 396.502 C 257.322 396.062,258.672 394.992,259.498 394.124 C 260.324 393.256,261.270 392.415,261.600 392.257 C 263.081 391.545,264.046 390.877,263.992 390.600 C 263.960 390.435,264.417 389.982,265.007 389.595 C 266.042 388.916,266.710 388.006,267.573 386.100 C 267.797 385.605,268.145 385.200,268.347 385.200 C 268.548 385.200,268.816 384.791,268.941 384.292 C 269.066 383.793,269.534 382.992,269.981 382.513 C 270.862 381.567,272.952 378.000,272.625 378.000 C 272.514 378.000,272.869 377.345,273.412 376.544 C 273.955 375.743,274.400 374.753,274.400 374.344 C 274.400 373.935,274.545 373.600,274.723 373.600 C 275.142 373.600,276.396 370.758,276.414 369.766 C 276.422 369.345,276.673 368.559,276.971 368.020 C 277.269 367.481,277.424 366.806,277.314 366.520 C 277.204 366.234,277.314 366.000,277.557 366.000 C 277.801 366.000,278.000 365.550,278.000 365.000 C 278.000 364.450,278.169 364.000,278.375 364.000 C 278.581 364.000,278.647 363.370,278.523 362.600 C 278.376 361.699,278.455 361.200,278.743 361.200 C 278.989 361.200,279.306 360.476,279.448 359.591 C 279.589 358.706,279.861 357.886,280.053 357.768 C 280.244 357.649,280.400 357.128,280.400 356.610 C 280.400 356.091,280.609 355.597,280.865 355.512 C 281.334 355.355,281.590 354.599,281.769 352.845 C 281.822 352.319,282.526 351.302,283.333 350.584 C 284.311 349.714,284.800 348.932,284.800 348.239 C 284.800 347.582,285.021 347.200,285.400 347.200 C 285.730 347.200,286.000 346.968,286.000 346.685 C 286.000 346.402,286.348 346.144,286.773 346.112 C 287.693 346.043,289.600 344.857,289.600 344.354 C 289.600 344.159,290.388 344.000,291.351 344.000 C 292.420 344.000,293.296 343.766,293.600 343.400 C 294.285 342.575,302.607 342.520,302.921 343.338 C 303.034 343.634,303.685 343.892,304.366 343.911 C 305.047 343.931,305.881 344.224,306.221 344.564 C 306.635 344.978,307.361 345.130,308.427 345.027 C 309.396 344.934,310.223 345.080,310.543 345.400 C 310.832 345.689,311.683 345.985,312.434 346.058 C 313.185 346.130,314.038 346.417,314.329 346.695 C 314.619 346.973,315.455 347.200,316.186 347.200 C 316.998 347.200,317.604 347.433,317.745 347.800 C 317.919 348.255,318.656 348.400,320.787 348.400 C 323.021 348.400,323.600 348.524,323.600 349.000 C 323.600 349.895,338.057 349.895,338.800 349.000 C 339.173 348.550,340.175 348.400,342.800 348.400 C 345.425 348.400,346.427 348.250,346.800 347.800 C 347.074 347.470,347.951 347.194,348.749 347.186 C 349.547 347.178,350.650 346.914,351.200 346.600 C 351.750 346.286,352.684 346.022,353.276 346.014 C 353.868 346.006,354.464 345.820,354.600 345.600 C 354.736 345.380,355.274 345.200,355.795 345.200 C 356.316 345.200,357.013 344.930,357.343 344.600 C 357.673 344.270,358.294 344.000,358.722 344.000 C 359.151 344.000,359.726 343.730,360.000 343.400 C 360.274 343.070,360.738 342.800,361.031 342.800 C 361.632 342.800,364.171 341.165,364.302 340.693 C 364.349 340.524,365.020 339.831,365.793 339.153 C 366.565 338.474,367.097 337.756,366.973 337.557 C 366.850 337.357,367.076 337.076,367.475 336.931 C 368.691 336.490,371.200 333.716,371.200 332.812 C 371.200 332.343,371.450 331.474,371.756 330.880 C 372.601 329.238,372.651 320.582,371.818 320.262 C 371.478 320.132,371.200 319.648,371.200 319.187 C 371.200 318.726,370.669 317.901,370.020 317.355 C 368.908 316.420,368.727 315.200,369.699 315.200 C 370.895 315.200,371.141 313.803,370.169 312.527 C 369.636 311.826,369.200 310.791,369.200 310.227 C 369.200 309.662,369.032 309.200,368.827 309.200 C 368.428 309.200,368.150 308.488,367.836 306.665 C 367.635 305.497,366.976 304.441,366.100 303.880 C 365.825 303.704,365.596 303.254,365.592 302.880 C 365.584 302.139,361.864 298.000,361.206 298.000 C 360.983 298.000,360.800 297.730,360.800 297.400 C 360.800 297.070,360.620 296.800,360.400 296.800 C 360.180 296.800,360.000 296.549,360.000 296.243 C 360.000 295.936,359.730 295.582,359.400 295.455 C 359.070 295.329,358.800 294.859,358.800 294.413 C 358.800 293.957,358.536 293.600,358.200 293.600 C 357.870 293.600,357.600 293.351,357.600 293.047 C 357.600 292.742,357.203 292.389,356.717 292.263 C 356.232 292.136,355.947 291.920,356.084 291.783 C 356.503 291.364,352.933 288.400,352.011 288.400 C 351.400 288.400,349.853 287.483,349.480 286.900 C 349.304 286.625,348.899 286.400,348.580 286.400 C 348.261 286.400,348.000 286.258,348.000 286.084 C 348.000 285.911,347.010 285.333,345.800 284.800 C 344.590 284.267,343.600 283.685,343.600 283.506 C 343.600 283.327,343.150 283.009,342.600 282.800 C 342.050 282.591,341.600 282.235,341.600 282.010 C 341.600 281.784,341.465 281.621,341.300 281.647 C 340.035 281.847,339.255 281.526,339.308 280.828 C 339.340 280.403,339.503 280.140,339.671 280.244 C 340.020 280.460,341.238 277.887,341.486 276.410 C 341.577 275.865,341.804 275.235,341.990 275.010 C 342.176 274.784,342.455 273.923,342.610 273.096 C 342.764 272.268,343.050 271.493,343.245 271.372 C 343.440 271.251,343.600 270.627,343.600 269.984 C 343.600 269.342,343.856 268.138,344.168 267.308 C 344.480 266.479,344.821 264.568,344.925 263.063 C 345.029 261.558,345.313 260.127,345.557 259.883 C 345.821 259.619,346.000 257.850,346.000 255.506 C 346.000 252.649,346.168 251.316,346.612 250.638 C 347.436 249.380,347.329 212.776,346.500 212.500 C 346.151 212.384,346.000 211.277,346.000 208.828 C 346.000 206.593,345.792 204.902,345.427 204.161 C 345.112 203.523,344.809 201.830,344.754 200.400 C 344.699 198.970,344.429 197.574,344.154 197.299 C 343.854 196.998,343.720 196.142,343.817 195.158 C 343.956 193.769,343.893 193.591,343.407 193.994 C 342.939 194.383,342.785 194.280,342.573 193.435 C 342.268 192.221,341.652 192.122,340.575 193.116 C 329.651 203.198,313.031 206.456,298.205 201.422 C 286.699 197.516,274.560 184.736,271.017 172.800 C 270.658 171.590,270.204 170.060,270.007 169.400 C 268.693 164.978,268.697 152.550,270.014 148.200 C 271.611 142.926,272.309 141.139,273.890 138.280 C 279.574 128.005,286.254 121.592,295.865 117.184 C 298.513 115.970,300.177 112.800,298.167 112.800 C 297.855 112.800,297.600 112.620,297.600 112.400 C 297.600 111.904,296.129 110.400,295.643 110.400 C 295.446 110.400,295.182 110.130,295.055 109.800 C 294.929 109.470,294.623 109.200,294.376 109.200 C 293.660 109.200,290.818 107.050,290.809 106.500 C 290.804 106.225,290.344 106.000,289.787 106.000 C 289.231 106.000,288.671 105.730,288.545 105.400 C 288.418 105.070,287.920 104.800,287.438 104.800 C 286.956 104.800,286.122 104.269,285.581 103.617 C 285.042 102.966,284.304 102.426,283.942 102.417 C 283.581 102.408,282.707 101.860,282.000 101.200 C 281.112 100.371,280.309 100.000,279.400 100.000 C 278.601 100.000,277.995 99.765,277.855 99.400 C 277.729 99.070,277.169 98.800,276.613 98.800 C 276.056 98.800,275.600 98.620,275.600 98.400 C 275.600 98.180,275.253 98.000,274.829 98.000 C 274.404 98.000,273.787 97.730,273.457 97.400 C 273.127 97.070,272.686 96.800,272.478 96.800 C 272.269 96.800,271.874 96.530,271.600 96.200 C 271.326 95.870,270.516 95.600,269.800 95.600 C 269.084 95.600,268.274 95.330,268.000 95.000 C 267.712 94.653,266.839 94.400,265.927 94.400 C 265.061 94.400,264.452 94.239,264.574 94.042 C 264.840 93.612,263.882 93.200,262.616 93.200 C 262.111 93.200,261.502 92.964,261.263 92.675 C 261.023 92.387,259.966 92.107,258.914 92.054 C 257.861 92.001,256.940 91.786,256.866 91.576 C 256.792 91.366,256.567 91.297,256.366 91.421 C 256.165 91.545,256.000 91.457,256.000 91.224 C 256.000 90.976,255.044 90.795,253.700 90.787 C 252.315 90.780,251.091 90.541,250.624 90.187 C 250.176 89.849,248.981 89.600,247.804 89.600 C 246.680 89.600,245.538 89.378,245.266 89.106 C 244.955 88.795,243.147 88.556,240.386 88.462 C 237.974 88.379,236.000 88.151,236.000 87.956 C 236.000 87.413,207.064 87.496,206.519 88.041 M210.000 129.134 C 243.235 138.065,254.810 180.053,230.841 204.739 C 228.777 206.865,222.769 211.600,222.135 211.600 C 221.986 211.600,221.579 211.843,221.231 212.140 C 220.884 212.437,219.520 213.228,218.200 213.898 C 182.661 231.924,142.917 190.743,160.585 154.200 C 170.110 134.501,190.841 123.985,210.000 129.134 M324.553 142.965 C 321.668 143.665,316.400 147.023,316.400 148.163 C 316.400 148.349,317.165 147.797,318.100 146.935 C 325.683 139.946,338.340 143.117,341.753 152.862 C 342.128 153.933,342.369 154.269,342.381 153.737 C 342.519 147.494,332.024 141.152,324.553 142.965 M331.726 149.180 C 328.355 151.235,328.839 156.254,332.558 157.808 C 334.716 158.710,335.247 158.485,333.200 157.537 C 330.608 156.337,330.000 155.551,330.000 153.403 C 330.000 151.539,330.903 149.600,331.770 149.600 C 332.353 149.600,333.962 148.430,333.400 148.414 C 333.180 148.408,332.426 148.753,331.726 149.180 M335.376 149.013 C 335.804 149.336,336.361 149.600,336.614 149.600 C 337.722 149.600,338.571 151.254,338.571 153.411 C 338.571 154.598,338.710 155.352,338.880 155.085 C 339.933 153.427,338.733 150.024,336.745 149.033 C 335.161 148.242,334.342 148.230,335.376 149.013 M314.432 151.139 C 314.195 151.584,314.001 152.184,314.002 152.474 C 314.004 152.763,314.277 152.478,314.610 151.840 C 314.942 151.203,315.136 150.602,315.040 150.506 C 314.943 150.410,314.670 150.695,314.432 151.139 M313.310 154.243 C 312.782 155.537,312.975 160.738,313.571 161.296 C 314.015 161.713,314.061 161.626,313.834 160.800 C 313.211 158.538,313.134 156.812,313.593 155.420 C 314.096 153.896,313.857 152.901,313.310 154.243 M342.534 157.600 C 342.534 159.250,342.605 159.925,342.691 159.100 C 342.778 158.275,342.778 156.925,342.691 156.100 C 342.605 155.275,342.534 155.950,342.534 157.600 M207.400 155.848 C 204.327 156.646,201.239 158.200,201.213 158.962 C 201.206 159.161,201.540 159.016,201.955 158.641 C 205.282 155.629,213.618 155.435,218.100 158.263 C 218.925 158.784,219.600 159.040,219.600 158.833 C 219.600 158.626,218.745 158.062,217.700 157.580 C 216.655 157.099,215.477 156.540,215.083 156.339 C 214.243 155.909,208.563 155.547,207.400 155.848 M322.305 156.283 C 322.802 156.379,323.522 156.375,323.905 156.275 C 324.287 156.175,323.880 156.096,323.000 156.101 C 322.120 156.105,321.807 156.187,322.305 156.283 M337.600 156.361 C 337.600 156.559,337.031 156.920,336.335 157.163 C 335.639 157.405,335.173 157.706,335.298 157.831 C 335.568 158.101,337.840 156.982,338.198 156.403 C 338.335 156.181,338.257 156.000,338.024 156.000 C 337.791 156.000,337.600 156.162,337.600 156.361 M319.944 157.100 C 318.446 158.908,318.348 159.274,319.703 158.000 C 320.522 157.230,321.193 156.555,321.196 156.500 C 321.211 156.141,320.428 156.516,319.944 157.100 M325.693 157.099 C 326.294 157.472,327.055 158.322,327.384 158.988 C 327.902 160.039,327.983 160.083,327.991 159.320 C 328.000 158.489,325.810 156.386,324.962 156.411 C 324.763 156.416,325.092 156.726,325.693 157.099 M198.786 160.839 C 196.977 162.978,195.252 165.991,195.258 167.000 C 195.262 167.557,195.329 167.618,195.481 167.200 C 196.269 165.024,197.891 162.356,199.310 160.900 C 200.221 159.965,200.788 159.200,200.569 159.200 C 200.351 159.200,199.548 159.938,198.786 160.839 M220.823 160.247 C 222.689 162.351,224.192 164.551,224.878 166.185 C 225.250 167.073,225.565 167.519,225.578 167.175 C 225.633 165.634,221.664 159.735,220.244 159.247 C 220.000 159.163,220.260 159.613,220.823 160.247 M341.842 161.776 C 339.254 172.088,324.962 175.169,317.299 167.067 C 316.145 165.847,315.200 165.009,315.200 165.206 C 315.200 165.403,316.146 166.533,317.301 167.717 C 324.175 174.756,334.863 173.688,340.622 165.385 C 341.712 163.815,342.522 161.766,342.308 161.123 C 342.213 160.839,342.003 161.133,341.842 161.776 M214.306 162.845 L 213.000 164.091 214.331 163.045 C 217.816 160.308,223.964 163.930,222.015 167.572 C 221.378 168.763,221.551 169.536,222.200 168.400 C 224.815 163.825,218.178 159.154,214.306 162.845 M327.446 162.313 C 327.277 162.815,326.694 163.670,326.151 164.213 C 325.608 164.756,325.318 165.200,325.507 165.200 C 326.226 165.200,328.069 162.856,327.914 162.140 C 327.774 161.492,327.716 161.513,327.446 162.313 M314.012 162.800 C 314.012 163.490,314.680 164.670,314.911 164.388 C 314.996 164.285,314.829 163.750,314.539 163.200 C 314.248 162.649,314.012 162.469,314.012 162.800 M319.119 163.594 C 319.493 164.250,320.009 164.868,320.264 164.967 C 320.519 165.066,320.339 164.537,319.864 163.791 C 318.797 162.115,318.182 161.953,319.119 163.594 M212.920 166.400 C 212.920 167.610,212.995 168.105,213.087 167.500 C 213.178 166.895,213.178 165.905,213.087 165.300 C 212.995 164.695,212.920 165.190,212.920 166.400 M322.300 165.482 C 322.795 165.578,323.605 165.578,324.100 165.482 C 324.595 165.387,324.190 165.309,323.200 165.309 C 322.210 165.309,321.805 165.387,322.300 165.482 M225.742 171.400 C 225.741 173.380,225.808 174.240,225.892 173.312 C 225.976 172.384,225.977 170.764,225.895 169.712 C 225.812 168.660,225.743 169.420,225.742 171.400 M213.999 169.798 C 214.514 170.348,215.028 170.706,215.139 170.594 C 215.365 170.369,213.798 168.800,213.347 168.800 C 213.189 168.800,213.483 169.249,213.999 169.798 M194.924 171.400 C 194.926 172.720,195.001 173.212,195.090 172.493 C 195.179 171.774,195.177 170.694,195.086 170.093 C 194.995 169.492,194.922 170.080,194.924 171.400 M220.000 170.200 C 219.722 170.535,219.679 170.800,219.902 170.800 C 220.122 170.800,220.526 170.530,220.800 170.200 C 221.078 169.865,221.121 169.600,220.898 169.600 C 220.678 169.600,220.274 169.870,220.000 170.200 M204.200 170.867 C 202.993 171.534,201.598 172.885,201.614 173.370 C 201.622 173.606,202.044 173.292,202.552 172.672 C 204.330 170.499,208.774 170.480,210.188 172.638 C 210.560 173.205,210.968 173.565,211.096 173.437 C 211.426 173.108,210.001 171.621,208.721 170.959 C 207.435 170.294,205.314 170.251,204.200 170.867 M216.505 171.087 C 217.114 171.179,218.014 171.177,218.505 171.082 C 218.997 170.987,218.500 170.911,217.400 170.914 C 216.300 170.917,215.897 170.995,216.505 171.087 M195.247 176.000 C 195.264 177.547,198.373 181.774,201.361 184.313 C 206.501 188.679,217.902 187.421,221.765 182.061 C 222.576 180.936,222.577 180.936,219.335 183.858 C 213.072 189.504,200.477 186.152,196.385 177.751 C 195.755 176.458,195.243 175.670,195.247 176.000 M224.452 177.571 C 223.944 178.695,223.233 179.910,222.871 180.272 C 222.390 180.753,222.366 180.878,222.781 180.740 C 223.432 180.523,225.702 176.507,225.506 175.919 C 225.434 175.703,224.960 176.447,224.452 177.571 M201.613 177.051 C 201.649 178.039,204.800 180.543,204.800 179.584 C 204.800 179.381,204.350 179.102,203.800 178.964 C 203.250 178.826,202.800 178.485,202.800 178.206 C 202.800 177.926,202.530 177.474,202.200 177.200 C 201.870 176.926,201.606 176.859,201.613 177.051 M210.145 178.200 C 210.018 178.530,209.686 178.800,209.406 178.800 C 209.127 178.800,208.651 179.099,208.349 179.465 C 207.847 180.074,207.885 180.087,208.800 179.611 C 210.022 178.976,211.392 177.600,210.803 177.600 C 210.568 177.600,210.271 177.870,210.145 178.200 M232.912 226.413 C 242.903 231.306,253.557 232.331,263.269 229.333 C 267.984 227.878,271.607 229.661,271.048 233.162 C 270.084 239.200,251.148 242.000,238.550 237.968 C 236.543 237.326,234.605 236.800,234.243 236.800 C 230.481 236.800,223.600 231.197,223.600 228.133 C 223.600 223.964,226.730 223.386,232.912 226.413 " stroke="none" fill="#f3c3ec" fill-rule="evenodd"></path><path id="path1" d="M120.389 42.021 C 120.147 42.472,120.008 43.145,120.079 43.514 C 120.155 43.907,120.399 43.566,120.667 42.693 C 121.174 41.039,121.061 40.765,120.389 42.021 M119.265 45.417 C 118.707 46.642,118.694 46.800,119.153 46.800 C 119.470 46.800,120.074 44.747,119.830 44.498 C 119.775 44.442,119.521 44.856,119.265 45.417 M118.013 47.976 C 117.778 48.415,117.752 48.847,117.953 48.971 C 118.149 49.092,118.394 48.743,118.499 48.195 C 118.727 47.000,118.573 46.930,118.013 47.976 M117.016 51.173 C 116.871 51.408,116.898 51.603,117.076 51.606 C 117.254 51.609,117.130 51.787,116.800 52.000 C 116.380 52.271,116.354 52.390,116.713 52.394 C 116.994 52.397,117.332 52.122,117.462 51.783 C 117.745 51.046,117.393 50.565,117.016 51.173 M116.400 75.957 C 116.400 76.154,116.640 76.407,116.933 76.519 C 117.227 76.632,117.467 76.471,117.467 76.162 C 117.467 75.853,117.227 75.600,116.933 75.600 C 116.640 75.600,116.400 75.761,116.400 75.957 M117.613 78.300 C 117.620 78.465,117.890 78.949,118.213 79.376 C 119.212 80.697,118.963 81.600,117.600 81.600 C 116.800 81.600,116.400 81.800,116.400 82.200 C 116.400 82.530,116.130 82.800,115.800 82.800 C 115.470 82.800,115.200 83.070,115.200 83.400 C 115.200 83.800,114.800 84.000,114.000 84.000 C 113.200 84.000,112.800 84.200,112.800 84.600 C 112.800 84.930,112.606 85.200,112.368 85.200 C 111.805 85.200,107.200 89.805,107.200 90.368 C 107.200 90.606,106.930 90.800,106.600 90.800 C 106.270 90.800,106.000 91.070,106.000 91.400 C 106.000 91.730,105.730 92.000,105.400 92.000 C 105.070 92.000,104.800 92.270,104.800 92.600 C 104.800 92.930,104.530 93.200,104.200 93.200 C 103.800 93.200,103.600 93.600,103.600 94.400 C 103.600 95.200,103.400 95.600,103.000 95.600 C 102.631 95.600,102.400 95.975,102.400 96.572 C 102.400 97.262,102.139 97.595,101.500 97.718 C 100.698 97.872,100.715 97.897,101.657 97.946 C 102.239 97.975,102.818 98.270,102.945 98.600 C 103.071 98.930,103.451 99.200,103.787 99.200 C 104.133 99.200,104.400 99.548,104.400 100.000 C 104.400 100.440,104.235 100.800,104.034 100.800 C 103.832 100.800,103.539 102.784,103.382 105.209 C 103.225 107.633,102.931 109.719,102.729 109.844 C 102.517 109.975,102.559 110.309,102.826 110.632 C 103.082 110.940,103.386 112.364,103.501 113.796 C 103.615 115.228,103.849 116.400,104.020 116.400 C 104.190 116.400,104.451 117.119,104.600 117.998 C 104.748 118.877,105.034 119.697,105.235 119.822 C 105.436 119.946,105.600 120.487,105.600 121.024 C 105.600 121.625,105.831 122.000,106.200 122.000 C 106.600 122.000,106.800 122.400,106.800 123.200 C 106.800 124.000,107.000 124.400,107.400 124.400 C 107.730 124.400,108.000 124.670,108.000 125.000 C 108.000 125.330,108.270 125.600,108.600 125.600 C 108.930 125.600,109.200 125.870,109.200 126.200 C 109.200 126.530,109.470 126.800,109.800 126.800 C 110.130 126.800,110.400 126.980,110.400 127.200 C 110.400 127.854,112.415 129.572,114.000 130.269 C 114.330 130.414,115.256 131.043,116.058 131.666 C 116.859 132.290,117.784 132.800,118.112 132.800 C 118.440 132.800,119.224 133.069,119.854 133.398 C 120.484 133.726,121.300 133.996,121.667 133.998 C 122.033 133.999,122.407 134.220,122.497 134.490 C 122.734 135.203,138.462 135.213,138.700 134.500 C 138.792 134.225,139.240 134.000,139.697 134.000 C 140.891 134.000,145.893 131.408,148.587 129.393 C 150.764 127.765,151.656 126.717,152.240 125.100 C 152.379 124.715,152.652 124.400,152.847 124.400 C 153.041 124.400,153.200 124.143,153.200 123.829 C 153.200 123.514,153.448 123.009,153.751 122.706 C 154.054 122.403,154.429 121.580,154.583 120.877 C 154.737 120.175,155.029 119.600,155.232 119.600 C 155.434 119.600,155.600 118.983,155.600 118.229 C 155.600 117.474,155.870 116.587,156.200 116.257 C 156.644 115.813,156.800 114.724,156.800 112.061 C 156.800 108.028,156.993 107.204,157.943 107.191 C 158.478 107.184,158.441 107.054,157.743 106.491 C 156.584 105.556,155.600 103.504,155.600 102.020 C 155.600 101.349,155.432 100.800,155.227 100.800 C 155.022 100.800,154.739 100.395,154.599 99.900 C 154.237 98.617,153.088 96.306,152.500 95.678 C 152.225 95.383,152.000 94.886,152.000 94.571 C 152.000 94.257,151.820 94.000,151.600 94.000 C 151.380 94.000,151.200 93.804,151.200 93.565 C 151.200 93.326,150.036 92.021,148.614 90.665 C 144.434 86.680,143.604 86.000,142.915 86.000 C 142.556 86.000,141.979 85.767,141.631 85.483 C 139.199 83.493,126.771 81.630,124.976 82.987 C 124.003 83.724,121.745 83.775,121.320 83.070 C 121.144 82.778,120.683 82.423,120.296 82.281 C 119.909 82.139,119.634 81.882,119.686 81.711 C 119.827 81.237,118.650 78.800,118.279 78.800 C 118.099 78.800,118.064 78.620,118.200 78.400 C 118.336 78.180,118.257 78.000,118.024 78.000 C 117.791 78.000,117.606 78.135,117.613 78.300 M324.514 144.198 C 311.340 147.417,310.538 166.120,323.390 170.397 C 330.469 172.752,338.259 169.208,340.836 162.459 C 341.786 159.970,342.039 154.679,341.246 153.886 C 341.001 153.641,340.800 153.015,340.800 152.496 C 340.800 151.124,340.129 151.751,340.089 153.161 C 339.949 158.092,333.843 160.597,330.441 157.118 C 326.533 153.120,330.759 146.113,335.981 147.933 C 336.848 148.236,337.260 148.226,337.462 147.900 C 337.616 147.651,337.527 147.376,337.264 147.288 C 337.001 147.200,336.564 146.917,336.293 146.659 C 333.666 144.157,328.824 143.145,324.514 144.198 M325.592 155.901 C 329.751 157.990,329.806 163.782,325.686 165.767 C 319.183 168.900,314.327 159.759,320.496 155.998 C 322.105 155.017,323.770 154.985,325.592 155.901 M206.501 157.352 C 192.534 160.898,192.017 180.696,205.771 185.335 C 216.851 189.072,228.496 177.679,224.459 167.052 L 223.719 165.103 223.458 166.452 C 222.409 171.868,216.445 173.834,213.278 169.808 C 210.452 166.216,213.059 160.800,217.614 160.800 C 219.876 160.800,220.066 160.489,218.500 159.349 C 215.620 157.252,210.350 156.375,206.501 157.352 M208.274 170.025 C 211.067 171.081,212.303 173.387,211.816 176.635 C 211.210 180.671,205.577 182.164,202.513 179.100 C 198.350 174.937,202.784 167.951,208.274 170.025 M101.000 182.800 L 95.000 183.033 101.500 183.116 C 105.622 183.169,108.000 183.054,108.000 182.800 C 108.000 182.580,107.775 182.438,107.500 182.484 C 107.225 182.530,104.300 182.672,101.000 182.800 M104.202 193.197 C 104.067 193.415,104.141 193.910,104.366 194.297 C 104.717 194.900,104.777 194.844,104.788 193.900 C 104.801 192.750,104.616 192.528,104.202 193.197 " stroke="none" fill="#653d71" fill-rule="evenodd"></path><path id="path2" d="M146.743 19.556 C 147.547 20.066,146.779 20.372,144.490 20.453 C 143.129 20.501,142.532 20.678,142.654 20.995 C 142.827 21.446,142.622 21.523,140.790 21.695 C 140.345 21.737,140.061 21.982,140.159 22.238 C 140.266 22.517,139.779 22.796,138.952 22.930 C 138.100 23.069,137.016 23.704,136.142 24.578 C 135.360 25.360,134.481 26.000,134.189 26.000 C 133.896 26.000,133.342 26.315,132.957 26.700 C 132.572 27.085,132.154 27.402,132.029 27.405 C 131.617 27.415,129.200 29.963,129.200 30.387 C 129.200 30.614,128.975 30.801,128.700 30.803 C 128.425 30.804,127.772 31.434,127.248 32.203 C 126.725 32.971,126.140 33.600,125.948 33.600 C 125.757 33.600,125.600 33.849,125.600 34.154 C 125.600 34.976,124.597 36.759,123.746 37.452 C 123.336 37.786,123.238 37.937,123.530 37.788 C 123.969 37.563,123.969 37.661,123.530 38.363 C 123.240 38.829,122.776 39.123,122.501 39.017 C 122.183 38.895,122.000 39.186,122.000 39.813 C 122.000 40.356,121.848 40.800,121.663 40.800 C 121.315 40.800,120.192 43.950,120.336 44.525 C 120.380 44.704,119.948 45.784,119.375 46.925 C 118.802 48.066,118.348 49.045,118.366 49.100 C 118.537 49.605,118.311 49.679,118.018 49.215 C 117.621 48.588,117.483 50.262,117.590 54.400 C 117.656 56.940,116.950 56.784,116.688 54.200 C 116.535 52.696,116.526 52.712,116.538 54.469 C 116.544 55.497,116.328 56.604,116.058 56.930 C 115.668 57.400,115.673 57.565,116.083 57.730 C 116.412 57.861,116.345 57.948,115.900 57.968 C 114.915 58.013,114.819 70.279,115.800 70.655 C 116.130 70.782,116.400 71.136,116.400 71.443 C 116.400 71.749,116.564 72.000,116.765 72.000 C 117.131 72.000,117.532 73.869,117.687 76.300 C 117.733 77.015,117.902 77.600,118.062 77.600 C 118.223 77.600,118.680 78.152,119.077 78.828 C 120.391 81.059,122.113 81.797,124.608 81.198 C 128.129 80.353,138.240 81.458,139.780 82.855 C 139.989 83.045,140.384 83.200,140.659 83.200 C 143.543 83.200,155.200 94.230,155.200 96.959 C 155.200 97.080,155.646 98.128,156.192 99.289 C 156.737 100.450,157.330 102.120,157.509 103.000 C 157.816 104.507,157.932 104.613,159.510 104.826 C 162.255 105.196,162.165 105.514,158.500 108.433 C 158.222 108.654,158.000 109.702,158.000 110.790 C 158.000 124.765,145.902 136.893,131.600 137.256 C 120.878 137.527,110.488 132.093,105.494 123.600 C 102.173 117.953,100.612 108.184,102.196 102.964 C 103.014 100.267,102.970 100.018,101.600 99.540 C 100.940 99.310,100.400 98.869,100.400 98.561 C 100.400 98.117,99.484 97.990,96.000 97.950 C 93.580 97.923,91.375 97.873,91.100 97.840 C 90.825 97.807,90.406 98.031,90.170 98.339 C 89.870 98.728,88.868 98.894,86.870 98.884 C 84.660 98.874,84.000 99.001,84.000 99.436 C 84.000 100.040,83.698 100.118,81.755 100.015 C 81.070 99.978,80.227 100.230,79.883 100.574 C 79.539 100.918,78.636 101.200,77.878 101.200 C 77.119 101.200,76.274 101.470,76.000 101.800 C 75.726 102.130,75.229 102.400,74.895 102.400 C 74.561 102.400,74.088 102.671,73.844 103.001 C 73.589 103.347,72.687 103.629,71.722 103.666 C 70.783 103.701,70.078 103.917,70.122 104.155 C 70.165 104.389,69.795 104.643,69.300 104.718 C 68.805 104.794,68.400 104.994,68.400 105.164 C 68.400 105.333,67.940 105.681,67.377 105.937 C 66.815 106.194,66.466 106.583,66.601 106.802 C 66.736 107.021,66.512 107.200,66.103 107.200 C 64.999 107.200,63.207 108.127,63.203 108.700 C 63.201 108.975,62.936 109.200,62.613 109.200 C 62.286 109.200,62.116 109.438,62.231 109.736 C 62.344 110.031,62.124 110.526,61.741 110.836 C 61.148 111.318,61.096 111.318,61.385 110.838 C 61.622 110.445,61.576 110.367,61.235 110.579 C 60.966 110.745,60.844 111.138,60.964 111.451 C 61.085 111.765,60.827 112.327,60.392 112.700 C 59.956 113.073,59.600 113.608,59.600 113.889 C 59.600 114.170,59.379 114.355,59.109 114.300 C 58.840 114.245,58.552 114.650,58.469 115.200 C 58.387 115.750,58.133 116.316,57.905 116.457 C 57.458 116.735,57.211 129.599,57.653 129.600 C 57.968 129.600,58.502 131.163,58.504 132.091 C 58.505 132.471,58.662 132.685,58.853 132.567 C 59.044 132.449,59.200 132.624,59.200 132.957 C 59.200 133.289,59.515 133.744,59.900 133.968 C 60.285 134.192,60.437 134.381,60.238 134.388 C 60.039 134.395,60.399 134.850,61.038 135.400 C 61.704 135.972,61.960 136.399,61.639 136.400 C 61.277 136.400,61.406 136.685,62.000 137.200 C 62.507 137.640,63.075 138.000,63.261 138.000 C 63.448 138.000,63.555 138.225,63.500 138.500 C 63.445 138.775,63.625 138.955,63.900 138.900 C 64.175 138.845,64.400 138.997,64.400 139.237 C 64.400 139.870,65.714 141.393,66.300 141.440 C 67.525 141.538,67.672 141.635,67.455 142.200 C 67.289 142.633,67.499 142.800,68.213 142.800 C 68.756 142.800,69.200 142.980,69.200 143.200 C 69.200 143.420,69.547 143.600,69.971 143.600 C 70.396 143.600,71.048 143.905,71.421 144.278 C 71.794 144.651,72.413 144.979,72.798 145.007 C 73.589 145.065,76.822 148.281,77.014 149.200 C 77.082 149.530,77.153 150.025,77.169 150.300 C 77.186 150.575,77.426 150.800,77.702 150.800 C 78.040 150.800,78.192 151.422,78.166 152.700 C 78.142 153.878,78.361 154.872,78.741 155.317 C 79.110 155.748,79.318 156.651,79.263 157.584 C 79.212 158.447,79.383 159.266,79.648 159.429 C 79.972 159.630,80.022 159.545,79.803 159.162 C 79.568 158.750,79.607 158.714,79.947 159.025 C 80.202 159.259,80.453 160.474,80.505 161.724 C 80.568 163.224,80.770 163.997,81.100 163.998 C 81.420 163.999,81.600 164.601,81.600 165.669 C 81.600 166.586,81.868 167.633,82.195 167.995 C 82.523 168.357,82.865 169.271,82.955 170.026 C 83.046 170.782,83.318 171.355,83.560 171.300 C 83.829 171.239,84.012 171.938,84.032 173.100 C 84.049 174.145,84.154 174.774,84.266 174.498 C 84.596 173.678,85.200 174.360,85.200 175.554 C 85.200 176.718,86.829 178.638,87.363 178.104 C 87.530 177.937,87.607 178.042,87.533 178.337 C 87.460 178.633,87.670 179.010,88.000 179.175 C 88.330 179.340,89.024 179.697,89.542 179.967 C 90.311 180.369,90.434 180.362,90.212 179.930 C 90.063 179.638,90.224 179.749,90.570 180.176 C 90.917 180.604,91.200 181.121,91.200 181.325 C 91.200 181.530,91.462 181.480,91.782 181.215 C 92.438 180.670,93.200 180.974,93.200 181.781 C 93.200 182.208,94.501 182.296,99.700 182.222 C 107.339 182.114,108.716 181.873,109.039 180.589 C 109.256 179.722,111.003 178.870,111.514 179.381 C 111.952 179.819,110.575 181.750,109.545 182.141 C 108.523 182.529,107.206 185.200,108.037 185.200 C 108.237 185.200,108.400 184.858,108.400 184.440 C 108.400 183.997,108.976 183.339,109.779 182.866 C 110.537 182.418,111.531 181.320,111.988 180.424 C 112.572 179.279,113.320 178.559,114.509 178.000 C 125.354 172.901,139.600 150.188,139.600 137.998 C 139.600 136.856,140.793 135.600,141.877 135.600 C 142.794 135.600,148.978 131.656,150.846 129.879 C 155.206 125.731,158.789 117.209,158.797 110.967 L 158.800 108.534 161.050 106.867 C 162.766 105.596,163.663 105.200,164.825 105.200 C 170.762 105.200,183.635 99.558,189.522 94.377 C 190.507 93.509,191.713 92.800,192.202 92.800 C 192.692 92.800,193.521 92.465,194.046 92.055 C 194.571 91.645,195.405 91.183,195.900 91.028 C 196.395 90.873,196.800 90.583,196.800 90.384 C 196.800 90.185,195.963 90.467,194.940 91.011 C 192.460 92.330,191.422 92.324,192.962 91.000 C 193.601 90.450,194.456 90.000,194.862 90.000 C 195.345 90.000,195.600 89.710,195.600 89.160 C 195.600 88.411,195.793 88.335,197.381 88.461 C 198.511 88.551,199.023 88.463,198.781 88.221 C 198.163 87.603,198.341 87.200,199.233 87.200 C 199.719 87.200,199.998 86.993,199.901 86.703 C 199.810 86.430,200.094 86.025,200.532 85.803 C 200.970 85.581,201.376 85.070,201.434 84.666 C 201.492 84.263,201.868 83.665,202.270 83.337 C 202.671 83.009,202.747 82.872,202.438 83.032 C 202.069 83.224,201.974 83.165,202.162 82.862 C 202.319 82.608,202.726 82.400,203.066 82.400 C 203.452 82.400,203.599 82.174,203.455 81.800 C 203.329 81.470,203.399 81.200,203.613 81.200 C 203.826 81.200,204.000 80.849,204.000 80.420 C 204.000 79.991,204.293 79.476,204.650 79.276 C 205.007 79.076,205.300 78.426,205.300 77.833 C 205.300 77.085,205.468 76.817,205.845 76.962 C 206.145 77.077,206.371 77.043,206.348 76.886 C 206.213 75.981,206.455 75.187,206.800 75.400 C 207.208 75.652,207.266 75.465,207.404 73.460 C 207.447 72.833,207.733 72.161,208.041 71.966 C 208.348 71.772,208.443 71.609,208.251 71.606 C 208.059 71.603,208.080 71.375,208.297 71.100 C 208.514 70.825,208.618 70.089,208.527 69.465 C 208.424 68.751,208.517 68.425,208.777 68.586 C 209.024 68.738,209.095 68.592,208.954 68.224 C 208.824 67.885,208.961 67.513,209.258 67.399 C 209.915 67.148,209.873 55.109,209.217 55.328 C 209.098 55.367,208.959 55.263,208.908 55.096 C 208.858 54.929,208.509 54.209,208.132 53.496 C 207.756 52.783,207.458 51.705,207.470 51.100 C 207.482 50.495,207.306 50.000,207.079 50.000 C 206.852 50.000,206.784 49.883,206.927 49.740 C 207.239 49.428,205.348 47.600,204.713 47.600 C 204.467 47.600,204.383 47.483,204.526 47.341 C 204.862 47.005,203.198 45.554,202.776 45.815 C 202.600 45.924,202.325 45.802,202.166 45.545 C 201.970 45.228,202.059 45.180,202.438 45.397 C 202.860 45.637,202.890 45.598,202.559 45.238 C 202.316 44.974,201.641 44.707,201.058 44.645 C 200.476 44.583,199.864 44.383,199.699 44.202 C 199.535 44.020,199.625 44.001,199.900 44.159 C 200.175 44.318,200.400 44.268,200.400 44.049 C 200.400 43.830,199.815 43.594,199.100 43.525 C 198.322 43.450,197.840 43.199,197.900 42.900 C 197.956 42.620,197.605 42.398,197.100 42.395 C 195.762 42.386,194.383 41.952,194.597 41.605 C 195.021 40.919,181.293 41.121,180.231 41.816 C 179.677 42.179,178.426 42.504,177.451 42.538 C 176.475 42.572,175.762 42.738,175.866 42.907 C 175.970 43.075,176.268 43.091,176.528 42.942 C 176.787 42.794,176.861 42.824,176.692 43.011 C 176.348 43.388,175.458 43.546,172.800 43.697 C 171.614 43.765,171.034 43.971,171.100 44.300 C 171.240 45.001,169.802 44.925,169.200 44.200 C 168.926 43.870,168.263 43.600,167.727 43.600 C 167.191 43.600,166.856 43.432,166.983 43.228 C 167.109 43.023,167.041 42.749,166.830 42.619 C 166.614 42.485,166.481 40.298,166.524 37.591 C 166.566 34.956,166.467 32.755,166.303 32.700 C 166.140 32.645,165.966 32.101,165.915 31.491 C 165.865 30.881,165.628 30.457,165.388 30.549 C 165.125 30.650,164.913 30.068,164.855 29.089 C 164.786 27.913,164.436 27.131,163.594 26.269 C 162.953 25.614,162.510 24.945,162.610 24.784 C 162.710 24.623,162.523 24.268,162.196 23.996 C 161.868 23.724,161.597 23.659,161.594 23.851 C 161.591 24.043,161.360 23.750,161.081 23.200 C 160.802 22.650,160.310 22.183,159.987 22.161 C 158.851 22.087,157.956 21.491,158.164 20.948 C 158.292 20.617,158.103 20.395,157.687 20.387 C 157.309 20.380,156.651 20.110,156.224 19.787 C 155.644 19.349,154.277 19.202,150.824 19.206 C 148.088 19.210,146.422 19.353,146.743 19.556 M116.094 66.263 C 116.152 68.498,116.065 70.242,115.900 70.139 C 115.735 70.037,115.633 67.308,115.674 64.076 C 115.749 58.109,115.903 58.910,116.094 66.263 M116.509 74.000 C 116.509 74.990,116.587 75.395,116.682 74.900 C 116.778 74.405,116.778 73.595,116.682 73.100 C 116.587 72.605,116.509 73.010,116.509 74.000 M323.156 143.788 C 319.883 144.993,316.459 147.995,314.982 150.955 C 313.961 153.003,314.653 152.524,315.904 150.318 C 319.187 144.527,326.521 142.026,333.085 144.458 C 336.157 145.596,340.245 149.706,341.208 152.625 C 341.468 153.411,341.776 153.957,341.894 153.840 C 342.677 153.057,339.066 147.750,336.472 145.872 C 332.974 143.339,326.941 142.395,323.156 143.788 M332.200 148.467 C 331.017 149.121,329.600 150.479,329.600 150.959 C 329.600 151.189,329.881 150.977,330.224 150.487 C 331.035 149.329,332.858 148.400,334.319 148.400 C 339.657 148.400,341.076 155.484,336.172 157.654 C 334.109 158.566,333.870 158.896,335.639 158.389 C 338.767 157.492,340.432 154.534,339.520 151.492 C 338.730 148.853,334.593 147.144,332.200 148.467 M329.309 153.200 C 329.309 154.190,329.387 154.595,329.482 154.100 C 329.578 153.605,329.578 152.795,329.482 152.300 C 329.387 151.805,329.309 152.210,329.309 153.200 M342.077 157.229 C 341.945 162.436,339.813 166.460,335.790 169.100 C 334.701 169.815,334.005 170.400,334.245 170.400 C 335.639 170.400,339.482 166.655,340.956 163.861 C 342.230 161.445,342.487 160.096,342.301 156.800 L 342.154 154.200 342.077 157.229 M313.452 155.700 C 313.130 156.903,313.184 158.816,313.569 159.800 C 313.764 160.299,313.882 159.509,313.882 157.700 C 313.882 154.577,313.825 154.309,313.452 155.700 M321.338 155.906 C 321.084 156.068,321.818 156.200,322.969 156.200 C 324.661 156.200,325.363 156.425,326.631 157.374 C 327.857 158.291,328.025 158.348,327.401 157.633 C 325.884 155.896,322.755 155.005,321.338 155.906 M330.182 156.438 C 330.795 157.451,332.351 158.416,333.319 158.384 C 333.583 158.376,333.201 158.109,332.469 157.791 C 331.737 157.473,330.782 156.805,330.346 156.306 L 329.553 155.400 330.182 156.438 M207.308 156.422 C 201.582 157.552,195.930 163.199,195.381 168.339 C 195.295 169.143,195.322 169.440,195.440 169.000 C 197.726 160.512,204.870 155.411,212.571 156.767 C 215.515 157.286,215.998 157.037,213.208 156.439 C 210.900 155.944,209.745 155.941,207.308 156.422 M319.020 157.738 C 318.459 158.474,318.001 159.329,318.002 159.638 C 318.004 159.947,318.286 159.660,318.630 159.001 C 318.974 158.341,319.541 157.486,319.890 157.101 C 320.239 156.715,320.415 156.400,320.282 156.400 C 320.149 156.400,319.582 157.002,319.020 157.738 M217.829 158.626 C 221.861 161.011,222.004 161.997,218.200 161.190 C 216.483 160.826,212.800 162.743,212.800 164.001 C 212.800 164.177,213.412 163.708,214.160 162.960 C 217.141 159.979,221.962 161.669,222.828 166.000 L 223.108 167.400 223.154 166.124 C 223.252 163.417,224.764 165.824,225.339 169.600 C 225.461 170.404,225.502 170.347,225.546 169.308 C 225.707 165.472,219.137 157.200,215.928 157.200 C 215.648 157.200,216.503 157.842,217.829 158.626 M328.000 160.800 C 328.000 161.973,328.111 162.822,328.247 162.686 C 328.553 162.381,328.534 159.200,328.224 158.891 C 328.101 158.768,328.000 159.627,328.000 160.800 M318.006 161.953 C 317.967 165.781,324.221 167.404,327.030 164.295 L 328.200 163.000 326.945 164.132 C 324.356 166.466,320.340 165.949,318.878 163.093 C 318.401 162.162,318.009 161.649,318.006 161.953 M314.400 163.014 C 314.400 164.299,318.912 169.016,321.321 170.250 C 324.877 172.073,332.442 172.350,333.464 170.696 C 333.641 170.411,333.472 170.364,332.966 170.560 C 326.782 172.948,319.095 170.258,315.740 164.533 C 314.801 162.932,314.400 162.477,314.400 163.014 M212.509 166.400 C 212.509 167.390,212.587 167.795,212.682 167.300 C 212.778 166.805,212.778 165.995,212.682 165.500 C 212.587 165.005,212.509 165.410,212.509 166.400 M221.799 168.934 C 221.359 169.618,220.549 170.405,219.999 170.683 C 219.450 170.961,219.270 171.187,219.600 171.185 C 220.400 171.181,221.793 170.022,222.386 168.866 C 223.102 167.469,222.714 167.514,221.799 168.934 M212.800 168.759 C 212.800 169.131,215.154 171.399,215.303 171.171 C 215.364 171.077,214.826 170.430,214.107 169.734 C 213.388 169.038,212.800 168.599,212.800 168.759 M204.400 170.259 C 203.210 170.733,201.201 172.975,201.246 173.778 C 201.292 174.582,201.297 174.582,201.488 173.800 C 201.921 172.022,204.264 170.400,206.400 170.400 C 208.536 170.400,210.879 172.022,211.312 173.800 C 211.503 174.582,211.508 174.582,211.554 173.778 C 211.677 171.600,206.915 169.257,204.400 170.259 M216.705 171.483 C 217.202 171.579,217.922 171.575,218.305 171.475 C 218.687 171.375,218.280 171.296,217.400 171.301 C 216.520 171.305,216.207 171.387,216.705 171.483 M225.139 173.800 C 225.002 174.680,224.770 175.850,224.622 176.400 C 224.368 177.350,224.387 177.344,225.000 176.281 C 225.374 175.632,225.591 174.538,225.516 173.681 L 225.387 172.200 225.139 173.800 M195.260 174.200 C 195.243 174.860,195.504 175.850,195.842 176.400 C 196.244 177.055,196.358 177.124,196.174 176.600 C 196.019 176.160,195.757 175.170,195.592 174.400 C 195.297 173.024,195.291 173.021,195.260 174.200 M196.400 177.862 C 196.400 180.416,204.279 186.452,207.511 186.374 C 208.254 186.356,207.911 186.162,206.433 185.765 C 202.723 184.767,199.682 182.528,197.548 179.222 C 196.917 178.244,196.400 177.632,196.400 177.862 M222.576 179.954 C 220.629 182.647,217.405 184.951,214.400 185.797 C 212.671 186.284,212.528 186.376,213.733 186.228 C 216.950 185.833,221.616 182.499,223.756 179.065 C 225.000 177.070,224.256 177.631,222.576 179.954 M210.198 178.617 C 209.979 178.957,209.080 179.489,208.200 179.800 C 207.320 180.110,206.924 180.373,207.320 180.382 C 207.716 180.392,208.539 180.142,209.149 179.826 C 210.335 179.213,211.529 178.000,210.947 178.000 C 210.754 178.000,210.417 178.278,210.198 178.617 M203.776 179.813 C 204.204 180.136,204.924 180.379,205.376 180.354 C 206.180 180.308,206.180 180.303,205.400 180.115 C 204.960 180.009,204.429 179.760,204.220 179.561 C 204.011 179.363,203.651 179.206,203.420 179.213 C 203.189 179.220,203.349 179.490,203.776 179.813 M106.602 186.397 C 106.467 186.615,106.541 187.110,106.766 187.497 C 107.117 188.100,107.177 188.044,107.188 187.100 C 107.201 185.950,107.016 185.728,106.602 186.397 M369.200 311.151 C 369.200 311.344,369.431 311.694,369.714 311.929 C 370.103 312.252,370.229 312.166,370.229 311.578 C 370.229 311.150,369.997 310.800,369.714 310.800 C 369.431 310.800,369.200 310.958,369.200 311.151 M369.063 315.781 C 368.931 316.124,369.324 316.770,370.020 317.355 C 370.669 317.901,371.226 318.765,371.257 319.274 C 371.288 319.783,371.423 319.480,371.557 318.600 C 371.792 317.054,371.755 316.988,370.483 316.656 C 369.270 316.340,369.223 316.270,369.883 315.769 C 370.518 315.288,370.524 315.224,369.943 315.213 C 369.581 315.206,369.185 315.461,369.063 315.781 M372.325 324.801 C 372.256 327.221,372.335 329.201,372.500 329.201 C 372.665 329.200,372.800 327.220,372.800 324.800 C 372.800 319.111,372.486 319.112,372.325 324.801 M279.867 357.867 C 279.720 358.013,279.611 358.508,279.625 358.967 C 279.649 359.733,279.682 359.723,280.034 358.842 C 280.426 357.863,280.344 357.389,279.867 357.867 M198.400 400.024 C 198.400 400.257,198.568 400.344,198.772 400.217 C 198.977 400.091,199.258 400.170,199.396 400.393 C 199.534 400.617,199.851 400.800,200.100 400.800 C 200.349 400.800,200.204 400.536,199.776 400.213 C 198.848 399.510,198.400 399.449,198.400 400.024 M241.131 401.524 C 240.334 401.616,239.953 401.973,239.636 402.924 C 239.240 404.112,239.253 404.145,239.822 403.401 C 240.303 402.772,240.853 402.617,242.416 402.670 C 243.818 402.718,244.400 402.584,244.400 402.214 C 244.400 401.650,242.856 401.324,241.131 401.524 M209.055 403.400 C 208.900 403.806,209.076 404.000,209.600 404.000 C 210.124 404.000,210.300 403.806,210.145 403.400 C 210.018 403.070,209.773 402.800,209.600 402.800 C 209.427 402.800,209.182 403.070,209.055 403.400 " stroke="none" fill="#b483cb" fill-rule="evenodd"></path><path id="path3" d="M214.700 87.499 C 218.275 87.566,224.125 87.566,227.700 87.499 C 231.275 87.433,228.350 87.379,221.200 87.379 C 214.050 87.379,211.125 87.433,214.700 87.499 M309.600 111.433 C 309.015 111.758,307.425 111.991,305.771 111.994 C 303.813 111.998,302.460 112.235,301.374 112.763 C 300.511 113.183,299.641 113.425,299.441 113.301 C 299.240 113.178,299.205 113.284,299.362 113.538 C 299.519 113.792,299.478 114.000,299.272 114.000 C 299.066 114.000,298.691 114.498,298.439 115.107 C 298.128 115.856,297.304 116.524,295.890 117.172 C 286.252 121.593,279.579 127.995,273.890 138.280 C 272.309 141.139,271.611 142.926,270.014 148.200 C 268.697 152.550,268.693 164.978,270.007 169.400 C 270.204 170.060,270.658 171.590,271.017 172.800 C 274.560 184.736,286.699 197.516,298.205 201.422 C 313.031 206.456,329.651 203.198,340.575 193.116 C 341.652 192.122,342.268 192.221,342.573 193.435 C 342.898 194.730,343.407 194.370,345.743 191.200 C 347.697 188.550,347.998 188.165,348.900 187.171 C 349.285 186.747,349.600 186.220,349.600 186.000 C 349.600 185.780,349.915 185.253,350.300 184.829 C 351.680 183.309,352.000 182.825,352.000 182.266 C 352.000 181.954,352.270 181.474,352.600 181.200 C 352.930 180.926,353.200 180.379,353.200 179.984 C 353.200 179.590,353.342 179.207,353.514 179.133 C 354.140 178.868,356.381 173.757,356.642 172.000 C 356.789 171.010,357.110 169.947,357.355 169.638 C 357.982 168.846,357.977 148.482,357.348 148.085 C 357.100 147.928,356.768 146.855,356.611 145.700 C 356.454 144.546,356.162 143.500,355.963 143.377 C 355.763 143.254,355.600 142.648,355.600 142.030 C 355.600 141.083,354.499 139.117,353.568 138.400 C 353.425 138.290,353.181 137.795,353.027 137.300 C 352.872 136.805,352.578 136.400,352.373 136.400 C 352.168 136.400,352.000 136.062,352.000 135.649 C 352.000 135.236,351.730 134.674,351.400 134.400 C 351.070 134.126,350.800 133.558,350.800 133.138 C 350.800 132.719,350.530 132.271,350.200 132.145 C 349.870 132.018,349.600 131.725,349.600 131.493 C 349.600 131.261,349.084 130.605,348.453 130.036 C 347.821 129.466,347.185 128.613,347.038 128.140 C 346.739 127.176,342.974 123.200,342.361 123.200 C 341.936 123.200,341.823 123.116,339.400 121.010 C 338.520 120.245,337.575 119.614,337.300 119.609 C 337.025 119.604,336.800 119.441,336.800 119.247 C 336.800 119.052,336.485 118.788,336.100 118.658 C 335.299 118.389,334.085 117.630,333.288 116.900 C 332.988 116.625,332.415 116.400,332.014 116.400 C 331.613 116.400,331.182 116.130,331.055 115.800 C 330.929 115.470,330.447 115.200,329.984 115.200 C 329.521 115.200,328.873 114.930,328.543 114.600 C 328.213 114.270,327.606 114.000,327.195 114.000 C 326.784 114.000,326.336 113.820,326.200 113.600 C 326.064 113.380,325.446 113.200,324.827 113.200 C 324.207 113.200,322.935 112.930,322.000 112.600 C 321.065 112.270,319.416 112.000,318.337 112.000 C 317.257 112.000,315.728 111.730,314.938 111.400 C 313.193 110.671,310.949 110.685,309.600 111.433 M194.400 128.247 C 173.638 130.774,156.390 151.123,156.402 173.077 C 156.418 205.506,190.440 227.979,218.200 213.898 C 219.520 213.228,220.884 212.437,221.231 212.140 C 221.579 211.843,221.986 211.600,222.135 211.600 C 222.769 211.600,228.777 206.865,230.841 204.739 C 259.910 174.801,235.356 123.261,194.400 128.247 M330.627 142.835 C 343.909 145.267,347.275 162.989,335.800 170.073 C 329.678 173.853,322.385 172.924,317.301 167.717 C 316.146 166.533,315.200 165.379,315.200 165.154 C 315.200 164.928,314.930 164.473,314.600 164.143 C 314.270 163.813,314.000 163.142,314.000 162.651 C 314.000 162.161,313.777 161.537,313.505 161.265 C 313.196 160.956,313.011 159.585,313.011 157.600 C 313.011 155.615,313.196 154.244,313.505 153.935 C 313.777 153.663,314.000 153.122,314.000 152.732 C 314.000 151.823,315.569 148.800,316.040 148.800 C 316.238 148.800,316.400 148.580,316.400 148.312 C 316.400 145.345,325.404 141.878,330.627 142.835 M332.470 149.213 C 327.489 151.892,330.798 159.800,335.890 157.384 C 338.531 156.131,339.665 152.607,338.053 150.664 C 337.571 150.083,334.361 148.340,333.974 148.449 C 333.878 148.476,333.202 148.820,332.470 149.213 M215.083 156.339 C 215.477 156.540,216.655 157.099,217.700 157.580 C 218.745 158.062,219.600 158.623,219.600 158.828 C 219.600 159.033,219.825 159.206,220.100 159.213 C 220.778 159.231,223.437 162.393,224.723 164.711 C 226.196 167.365,226.305 174.736,224.915 177.663 C 223.557 180.525,220.460 183.805,217.698 185.308 C 213.161 187.778,204.702 187.377,201.642 184.547 C 195.875 179.215,195.015 177.510,195.015 171.400 C 195.015 167.281,195.107 166.727,196.119 164.753 C 197.189 162.665,199.949 159.200,200.542 159.200 C 200.703 159.200,201.282 158.786,201.828 158.279 C 202.374 157.773,203.761 157.061,204.910 156.697 C 206.060 156.333,207.270 155.940,207.600 155.823 C 208.475 155.512,214.243 155.909,215.083 156.339 M319.867 157.867 C 318.355 159.378,317.888 161.422,318.804 162.517 C 319.027 162.783,319.580 163.495,320.033 164.100 C 322.371 167.217,328.690 163.942,327.806 160.071 C 326.962 156.371,322.579 155.154,319.867 157.867 M214.431 163.036 C 212.628 164.552,212.620 167.860,214.414 169.613 C 215.815 170.984,219.066 171.325,220.000 170.200 C 220.274 169.870,220.702 169.600,220.952 169.600 C 221.751 169.600,222.412 166.677,221.972 165.083 C 221.161 162.146,216.872 160.982,214.431 163.036 M204.847 171.201 C 202.260 171.812,200.504 175.792,202.200 177.200 C 202.530 177.474,202.800 177.926,202.800 178.206 C 202.800 178.485,203.250 178.826,203.800 178.964 C 204.350 179.102,204.800 179.392,204.800 179.608 C 204.800 180.241,207.848 180.065,208.400 179.400 C 208.674 179.070,209.056 178.800,209.249 178.800 C 211.120 178.800,211.830 174.820,210.323 172.781 C 209.606 171.812,207.295 170.670,206.400 170.843 C 206.290 170.864,205.591 171.026,204.847 171.201 M106.412 187.600 C 106.412 187.930,106.587 188.470,106.800 188.800 C 107.145 189.333,107.188 189.333,107.188 188.800 C 107.188 188.470,107.013 187.930,106.800 187.600 C 106.455 187.067,106.412 187.067,106.412 187.600 M346.134 208.800 C 346.134 210.450,346.205 211.125,346.291 210.300 C 346.378 209.475,346.378 208.125,346.291 207.300 C 346.205 206.475,346.134 207.150,346.134 208.800 M224.655 225.455 C 223.202 226.907,223.212 229.197,224.680 231.315 C 225.755 232.866,232.613 236.800,234.243 236.800 C 234.605 236.800,236.543 237.326,238.550 237.968 C 251.148 242.000,270.084 239.200,271.048 233.162 C 271.607 229.661,267.984 227.878,263.269 229.333 C 253.557 232.331,242.903 231.306,232.912 226.413 C 228.046 224.030,226.284 223.825,224.655 225.455 M346.144 254.800 C 346.144 256.890,346.212 257.745,346.294 256.700 C 346.376 255.655,346.376 253.945,346.294 252.900 C 346.212 251.855,346.144 252.710,346.144 254.800 M371.600 315.702 C 371.600 316.032,371.870 316.526,372.200 316.800 C 372.688 317.205,372.800 317.186,372.800 316.698 C 372.800 316.368,372.530 315.874,372.200 315.600 C 371.712 315.195,371.600 315.214,371.600 315.702 M284.812 348.180 C 284.803 349.041,284.920 349.240,285.241 348.919 C 285.558 348.602,285.561 348.268,285.254 347.739 C 284.877 347.091,284.823 347.146,284.812 348.180 M278.400 362.200 C 278.400 362.750,278.580 363.200,278.800 363.200 C 279.020 363.200,279.200 362.750,279.200 362.200 C 279.200 361.650,279.020 361.200,278.800 361.200 C 278.580 361.200,278.400 361.650,278.400 362.200 M277.569 366.100 C 277.553 366.155,277.480 366.470,277.408 366.800 C 277.336 367.130,277.155 367.760,277.006 368.200 C 276.739 368.989,276.744 368.989,277.367 368.224 C 277.957 367.499,278.249 366.000,277.800 366.000 C 277.690 366.000,277.586 366.045,277.569 366.100 " stroke="none" fill="#fbfbfb" fill-rule="evenodd"></path><path id="path4" d="M145.800 20.000 C 145.664 20.220,145.823 20.400,146.153 20.400 C 146.483 20.400,146.864 20.220,147.000 20.000 C 147.136 19.780,146.977 19.600,146.647 19.600 C 146.317 19.600,145.936 19.780,145.800 20.000 M134.576 25.387 C 134.149 25.710,133.980 25.975,134.200 25.975 C 134.420 25.975,134.949 25.710,135.376 25.387 C 135.804 25.064,135.973 24.800,135.753 24.800 C 135.533 24.800,135.004 25.064,134.576 25.387 M166.542 37.400 C 166.541 39.380,166.608 40.240,166.692 39.312 C 166.776 38.384,166.777 36.764,166.695 35.712 C 166.612 34.660,166.543 35.420,166.542 37.400 M117.084 52.300 C 116.810 52.801,117.015 55.948,117.343 56.276 C 117.511 56.445,117.593 55.552,117.525 54.293 C 117.396 51.938,117.363 51.787,117.084 52.300 M209.750 61.800 C 209.751 64.220,209.816 65.158,209.896 63.885 C 209.976 62.612,209.975 60.632,209.894 59.485 C 209.814 58.338,209.749 59.380,209.750 61.800 M115.674 64.076 C 115.633 67.308,115.735 70.037,115.900 70.139 C 116.065 70.242,116.152 68.498,116.094 66.263 C 115.903 58.910,115.749 58.109,115.674 64.076 M208.832 67.939 C 208.595 68.384,208.401 68.984,208.402 69.274 C 208.404 69.563,208.677 69.278,209.010 68.640 C 209.342 68.003,209.536 67.402,209.440 67.306 C 209.343 67.210,209.070 67.495,208.832 67.939 M117.108 74.383 C 116.831 75.367,116.997 75.937,117.432 75.501 C 117.560 75.373,117.601 74.848,117.524 74.334 L 117.384 73.400 117.108 74.383 M117.822 77.906 C 118.468 78.356,119.979 81.487,119.690 81.776 C 119.550 81.917,119.820 82.132,120.290 82.255 C 120.760 82.378,121.241 82.731,121.360 83.039 C 121.643 83.778,123.976 83.744,124.976 82.987 C 126.771 81.630,139.199 83.493,141.631 85.483 C 141.979 85.767,142.556 86.000,142.915 86.000 C 143.604 86.000,144.434 86.680,148.614 90.665 C 150.036 92.021,151.200 93.326,151.200 93.565 C 151.200 93.804,151.380 94.000,151.600 94.000 C 151.820 94.000,152.000 94.257,152.000 94.571 C 152.000 94.886,152.225 95.383,152.500 95.678 C 153.088 96.306,154.237 98.617,154.599 99.900 C 154.739 100.395,155.022 100.800,155.227 100.800 C 155.432 100.800,155.600 101.349,155.600 102.020 C 155.600 103.504,156.584 105.556,157.743 106.491 C 158.441 107.054,158.478 107.184,157.943 107.191 C 156.993 107.204,156.800 108.028,156.800 112.061 C 156.800 114.724,156.644 115.813,156.200 116.257 C 155.870 116.587,155.600 117.474,155.600 118.229 C 155.600 118.983,155.434 119.600,155.232 119.600 C 155.029 119.600,154.737 120.175,154.583 120.877 C 154.429 121.580,154.054 122.403,153.751 122.706 C 153.448 123.009,153.200 123.514,153.200 123.829 C 153.200 124.143,153.041 124.400,152.847 124.400 C 152.652 124.400,152.379 124.715,152.240 125.100 C 151.656 126.717,150.764 127.765,148.587 129.393 C 145.893 131.408,140.891 134.000,139.697 134.000 C 139.240 134.000,138.792 134.225,138.700 134.500 C 138.462 135.213,122.734 135.203,122.497 134.490 C 122.407 134.220,122.033 133.999,121.667 133.998 C 121.300 133.996,120.484 133.726,119.854 133.398 C 119.224 133.069,118.440 132.800,118.112 132.800 C 117.784 132.800,116.859 132.290,116.058 131.666 C 115.256 131.043,114.330 130.414,114.000 130.269 C 112.415 129.572,110.400 127.854,110.400 127.200 C 110.400 126.980,110.130 126.800,109.800 126.800 C 109.470 126.800,109.200 126.530,109.200 126.200 C 109.200 125.870,108.930 125.600,108.600 125.600 C 108.270 125.600,108.000 125.330,108.000 125.000 C 108.000 124.670,107.730 124.400,107.400 124.400 C 107.000 124.400,106.800 124.000,106.800 123.200 C 106.800 122.400,106.600 122.000,106.200 122.000 C 105.831 122.000,105.600 121.625,105.600 121.024 C 105.600 120.487,105.436 119.946,105.235 119.822 C 105.034 119.697,104.748 118.877,104.600 117.998 C 104.451 117.119,104.190 116.400,104.020 116.400 C 103.849 116.400,103.615 115.228,103.501 113.796 C 103.386 112.364,103.082 110.940,102.826 110.632 C 102.559 110.309,102.517 109.975,102.729 109.844 C 102.931 109.719,103.225 107.633,103.382 105.209 C 103.539 102.784,103.832 100.800,104.034 100.800 C 104.235 100.800,104.400 100.440,104.400 100.000 C 104.400 99.560,104.139 99.200,103.820 99.200 C 103.501 99.200,103.067 98.891,102.855 98.512 C 102.523 97.920,101.732 97.818,97.135 97.777 C 92.778 97.738,92.589 97.757,96.100 97.878 C 99.401 97.992,100.400 98.153,100.400 98.574 C 100.400 98.875,100.940 99.310,101.600 99.540 C 102.970 100.018,103.014 100.267,102.196 102.964 C 100.612 108.184,102.173 117.953,105.494 123.600 C 110.488 132.093,120.878 137.527,131.600 137.256 C 145.902 136.893,158.000 124.765,158.000 110.790 C 158.000 109.702,158.222 108.654,158.500 108.433 C 162.165 105.514,162.255 105.196,159.510 104.826 C 157.932 104.613,157.816 104.507,157.509 103.000 C 157.330 102.120,156.737 100.450,156.192 99.289 C 155.646 98.128,155.200 97.080,155.200 96.959 C 155.200 94.230,143.543 83.200,140.659 83.200 C 140.384 83.200,139.989 83.045,139.780 82.855 C 138.240 81.458,128.129 80.353,124.608 81.198 C 122.113 81.797,120.391 81.059,119.077 78.828 C 118.680 78.152,118.140 77.603,117.877 77.606 C 117.558 77.610,117.539 77.709,117.822 77.906 M195.600 89.200 C 195.600 89.711,195.333 90.000,194.862 90.000 C 194.456 90.000,193.601 90.450,192.962 91.000 C 192.191 91.663,192.007 91.999,192.415 92.000 C 193.377 92.000,196.089 90.496,197.109 89.396 L 198.032 88.400 196.816 88.400 C 195.867 88.400,195.600 88.575,195.600 89.200 M57.357 123.600 C 57.357 126.570,57.420 127.785,57.497 126.300 C 57.574 124.815,57.574 122.385,57.497 120.900 C 57.420 119.415,57.357 120.630,57.357 123.600 M324.200 144.000 C 323.181 144.438,324.232 144.438,325.600 144.000 C 326.404 143.743,326.443 143.677,325.800 143.668 C 325.360 143.662,324.640 143.811,324.200 144.000 M330.400 144.000 C 331.768 144.438,332.819 144.438,331.800 144.000 C 331.360 143.811,330.640 143.662,330.200 143.668 C 329.557 143.677,329.596 143.743,330.400 144.000 M334.600 145.367 C 335.040 145.700,335.580 146.122,335.800 146.304 C 336.868 147.190,337.417 147.374,336.829 146.650 C 336.515 146.264,335.705 145.680,335.029 145.354 C 333.926 144.822,333.882 144.824,334.600 145.367 M333.700 147.876 C 334.085 147.976,334.715 147.976,335.100 147.876 C 335.485 147.775,335.170 147.693,334.400 147.693 C 333.630 147.693,333.315 147.775,333.700 147.876 M337.451 147.918 C 337.299 148.164,336.865 148.265,336.487 148.143 C 336.109 148.020,336.551 148.390,337.469 148.964 C 338.641 149.698,339.219 150.378,339.411 151.248 C 339.649 152.334,339.755 152.416,340.266 151.906 C 340.776 151.395,340.747 151.203,340.032 150.361 C 339.584 149.833,338.881 148.966,338.472 148.435 C 337.988 147.808,337.631 147.627,337.451 147.918 M330.887 149.100 C 330.268 149.705,330.130 149.910,330.581 149.555 C 331.031 149.200,331.760 148.710,332.200 148.467 C 332.640 148.223,332.778 148.019,332.506 148.012 C 332.235 148.005,331.506 148.495,330.887 149.100 M328.971 153.741 C 329.059 154.962,329.379 155.927,329.834 156.341 C 330.507 156.955,330.521 156.954,330.048 156.323 C 329.769 155.951,329.381 154.781,329.186 153.723 L 328.831 151.800 328.971 153.741 M340.816 152.676 C 340.807 153.158,340.980 153.664,341.200 153.800 C 341.420 153.936,341.629 154.712,341.664 155.524 C 341.722 156.867,341.742 156.891,341.883 155.790 C 341.968 155.125,341.766 153.955,341.434 153.190 C 340.961 152.100,340.828 151.989,340.816 152.676 M320.400 156.100 C 319.675 156.595,318.819 157.450,318.497 158.000 C 317.985 158.876,318.022 158.862,318.794 157.894 C 319.900 156.506,320.966 155.918,323.000 155.572 L 324.600 155.300 323.159 155.250 C 322.256 155.219,321.227 155.536,320.400 156.100 M325.400 156.067 C 325.840 156.310,326.569 156.800,327.019 157.155 C 327.470 157.510,327.332 157.305,326.713 156.700 C 326.094 156.095,325.365 155.605,325.094 155.612 C 324.822 155.619,324.960 155.823,325.400 156.067 M209.700 156.676 C 210.085 156.776,210.715 156.776,211.100 156.676 C 211.485 156.575,211.170 156.493,210.400 156.493 C 209.630 156.493,209.315 156.575,209.700 156.676 M215.546 157.816 C 216.286 158.137,217.006 158.394,217.146 158.386 C 217.666 158.357,215.376 157.228,214.800 157.230 C 214.470 157.231,214.806 157.494,215.546 157.816 M218.500 159.296 C 219.835 160.430,219.883 160.791,218.700 160.828 C 217.841 160.855,217.837 160.872,218.600 161.200 C 221.420 162.412,221.611 160.977,218.858 159.267 L 217.400 158.361 218.500 159.296 M341.654 159.296 C 341.625 159.898,341.257 161.293,340.839 162.396 C 340.420 163.498,340.226 164.308,340.408 164.195 C 340.972 163.847,342.068 160.069,341.884 159.109 C 341.731 158.315,341.702 158.339,341.654 159.296 M317.709 160.800 C 317.709 161.790,317.787 162.195,317.882 161.700 C 317.978 161.205,317.978 160.395,317.882 159.900 C 317.787 159.405,317.709 159.810,317.709 160.800 M214.276 162.100 C 213.554 162.815,213.452 162.975,214.049 162.456 C 214.647 161.937,215.735 161.370,216.468 161.197 C 217.731 160.898,217.742 160.880,216.694 160.841 C 215.947 160.813,215.163 161.222,214.276 162.100 M327.057 164.266 C 326.429 165.004,326.159 165.508,326.457 165.387 C 327.031 165.153,328.576 163.223,328.339 163.035 C 328.263 162.974,327.686 163.528,327.057 164.266 M223.467 164.667 C 223.320 164.813,223.215 165.398,223.234 165.967 C 223.268 166.981,223.275 166.979,223.621 165.820 C 223.985 164.603,223.931 164.202,223.467 164.667 M212.093 166.400 C 212.093 167.170,212.175 167.485,212.276 167.100 C 212.376 166.715,212.376 166.085,212.276 165.700 C 212.175 165.315,212.093 165.630,212.093 166.400 M316.400 165.452 C 316.400 165.664,317.165 166.549,318.100 167.419 L 319.800 169.000 318.200 167.206 C 317.320 166.220,316.555 165.335,316.500 165.239 C 316.445 165.144,316.400 165.240,316.400 165.452 M324.000 166.000 C 323.176 166.264,323.141 166.326,323.800 166.354 C 324.240 166.373,324.870 166.213,325.200 166.000 C 325.901 165.547,325.414 165.547,324.000 166.000 M337.985 167.016 C 337.460 167.575,336.124 168.561,335.015 169.207 C 333.907 169.853,333.148 170.386,333.329 170.391 C 333.980 170.409,337.049 168.401,338.187 167.213 C 338.827 166.546,339.257 166.000,339.145 166.000 C 339.032 166.000,338.510 166.457,337.985 167.016 M195.314 171.400 C 195.317 172.500,195.395 172.903,195.487 172.295 C 195.579 171.686,195.577 170.786,195.482 170.295 C 195.387 169.803,195.311 170.300,195.314 171.400 M205.700 169.876 C 206.085 169.976,206.715 169.976,207.100 169.876 C 207.485 169.775,207.170 169.693,206.400 169.693 C 205.630 169.693,205.315 169.775,205.700 169.876 M202.175 171.700 L 201.000 173.000 202.300 171.825 C 203.015 171.179,203.600 170.594,203.600 170.525 C 203.600 170.216,203.270 170.488,202.175 171.700 M209.200 170.525 C 209.200 170.594,209.785 171.179,210.500 171.825 L 211.800 173.000 210.625 171.700 C 209.530 170.488,209.200 170.216,209.200 170.525 M217.600 171.600 C 216.233 171.888,216.228 171.895,217.400 171.919 C 218.060 171.933,218.960 171.789,219.400 171.600 C 220.362 171.187,219.564 171.187,217.600 171.600 M327.300 171.476 C 327.685 171.576,328.315 171.576,328.700 171.476 C 329.085 171.375,328.770 171.293,328.000 171.293 C 327.230 171.293,326.915 171.375,327.300 171.476 M200.893 175.200 C 200.893 175.970,200.975 176.285,201.076 175.900 C 201.176 175.515,201.176 174.885,201.076 174.500 C 200.975 174.115,200.893 174.430,200.893 175.200 M109.938 179.468 C 109.574 179.565,109.170 180.063,109.042 180.576 C 108.720 181.856,107.327 182.115,100.520 182.161 C 97.396 182.183,94.992 182.352,95.177 182.537 C 95.362 182.722,98.319 182.812,101.747 182.737 C 107.028 182.621,108.006 182.692,108.144 183.200 C 108.267 183.651,108.319 183.627,108.354 183.100 C 108.379 182.715,108.679 182.400,109.019 182.400 C 109.761 182.400,111.600 180.506,111.600 179.742 C 111.600 179.202,111.194 179.135,109.938 179.468 M199.583 181.700 C 201.241 183.466,201.600 183.784,201.600 183.483 C 201.600 183.419,200.745 182.564,199.700 181.583 L 197.800 179.800 199.583 181.700 M205.500 180.682 C 205.995 180.778,206.805 180.778,207.300 180.682 C 207.795 180.587,207.390 180.509,206.400 180.509 C 205.410 180.509,205.005 180.587,205.500 180.682 M91.826 181.158 C 91.704 181.355,91.899 181.629,92.260 181.768 C 93.038 182.066,93.383 181.820,93.016 181.227 C 92.695 180.706,92.125 180.674,91.826 181.158 M220.000 182.454 L 218.200 184.085 219.894 182.813 C 221.368 181.707,222.314 180.774,221.924 180.812 C 221.856 180.819,220.990 181.558,220.000 182.454 M209.300 186.287 C 209.905 186.378,210.895 186.378,211.500 186.287 C 212.105 186.195,211.610 186.120,210.400 186.120 C 209.190 186.120,208.695 186.195,209.300 186.287 M344.914 201.400 C 344.917 202.500,344.995 202.903,345.087 202.295 C 345.179 201.686,345.177 200.786,345.082 200.295 C 344.987 199.803,344.911 200.300,344.914 201.400 M370.361 315.154 L 369.322 316.344 370.308 316.591 C 371.557 316.905,371.685 316.761,371.528 315.220 L 371.400 313.963 370.361 315.154 M371.600 318.800 C 371.600 319.829,371.782 320.400,372.109 320.400 C 372.436 320.400,372.618 319.829,372.618 318.800 C 372.618 317.771,372.436 317.200,372.109 317.200 C 371.782 317.200,371.600 317.771,371.600 318.800 M240.734 402.679 C 239.155 403.074,239.596 404.000,241.364 404.000 C 242.983 404.000,245.026 402.850,243.549 402.770 C 243.247 402.754,242.640 402.689,242.200 402.626 C 241.760 402.563,241.100 402.587,240.734 402.679 " stroke="none" fill="#9c599b" fill-rule="evenodd"></path></g></svg>